<svg xmlns="http://www.w3.org/2000/svg" viewBox="0 0 250 250" enable-background="new 0 0 250 250"><g fill="#214099"><path d="M125 36.4c33.5 0 60.8 27.3 60.8 60.8 0 20.5-13.4 35.7-25.2 49.1l-.1.1-.1.1c-8.1 9.2-15.2 17.2-16.6 25.6-2.1.8-10 3.7-18.8 3.7-8.3 0-16-2.6-18.8-3.7-1.4-8.3-8.5-16.3-16.6-25.5l-.1-.2c-11.3-12.7-25.3-28.5-25.3-49.1 0-33.6 27.3-60.9 60.8-60.9m0-6c-36.8 0-66.8 30-66.8 66.8 0 22.9 14.9 39.7 26.8 53.1 7.8 8.9 14.6 16.6 15.4 23.4v.2l.1.4.1.4.2.4.2.4.3.4c.1.1.2.2.3.4l.3.3c.1.1.2.2.4.3.1.1.2.2.4.2l.4.3c.1 0 .1.1.1.1.4.2 10.7 4.5 22.1 4.5s21.7-4.3 22.1-4.5c.4-.2.7-.4 1.1-.7.1-.1.1-.1.2-.1.4-.3.6-.6.8-1.1l.1-.2c.2-.4.4-.9.4-1.3v-.1c.8-6.9 7.6-14.5 15.4-23.4 11.9-13.5 26.8-30.3 26.8-53.1-.5-37.1-30.4-67.1-67.2-67.1zM155.3 95.4c-6 0-10.9-4.9-10.9-10.9 0-2.4-2-4.3-4.3-4.3s-4.3 2-4.3 4.3c0 6-4.9 10.9-10.9 10.9s-10.9-4.9-10.9-10.9c0-2.4-2-4.3-4.3-4.3s-4.3 2-4.3 4.3c0 6-4.9 10.9-10.9 10.9-2.4 0-4.3 2-4.3 4.3s2 4.3 4.3 4.3c6.1 0 11.6-2.8 15.2-7.3 3.6 4.4 9.1 7.3 15.2 7.3s11.6-2.8 15.1-7.3c3.6 4.4 9.1 7.3 15.2 7.3 2.4 0 4.3-2 4.3-4.3.1-2.3-1.8-4.3-4.2-4.3zM124.9 192.4c-8.5 0-18.3-3-19.5-4.2-1.2-1.2-1.2-3.1 0-4.2.9-.9 2.3-1.1 3.4-.6 1.4.6 8.8 3 16 3 4.8 0 10.6-1.1 16.1-3 .3-.1.7-.2 1.2-.2 1.7 0 3 1.3 3 3 0 1.4-.9 2.5-2.1 2.9h-.1c-3.5 1.2-10.6 3.3-18 3.3zM125 201.9c-7.1 0-14-2.1-17.4-3.3h-.1c-1.2-.4-2.1-1.5-2.1-2.9 0-1.7 1.3-3 3-3 .5 0 .9.1 1.2.3 5.2 1.9 10.9 3 15.4 3s10.2-1.1 15.4-3c.3-.1.7-.3 1.2-.3 1.7 0 3 1.3 3 3 0 1.4-.9 2.5-2.1 2.9h-.1c-3.4 1.3-10.3 3.3-17.4 3.3zM125 212.3c-7.7 0-13.5-2.8-13.7-2.9-1.5-.7-2.1-2.5-1.4-4 .7-1.5 2.5-2.1 4-1.4 0 0 4.8 2.3 11.1 2.3 3.7 0 7.7-.8 11.1-2.3.3-.1.7-.3 1.4-.3 1.7 0 3 1.3 3 3 0 1.3-.8 2.4-1.9 2.8-2.6 1-7.5 2.8-13.6 2.8zM125 215.6c-4 0-6.9-1.4-7.2-1.6-1.5-.7-2.1-2.5-1.4-4 .7-1.5 2.5-2.1 4-1.4 0 0 2 .9 4.6.9 2.2 0 3.9-.7 4.6-1l.6-.3h.7c1.7 0 3 1.3 3 3 0 1.3-.8 2.3-1.9 2.8-1.3.7-3.8 1.6-7 1.6z"/></g></svg>