<svg xmlns="http://www.w3.org/2000/svg" viewBox="0 0 250 250" enable-background="new 0 0 250 250"><g fill="#F16522"><path d="M125 38.2c48.4 0 87.8 39.4 87.8 87.8s-39.4 87.8-87.8 87.8-87.8-39.4-87.8-87.8 39.4-87.8 87.8-87.8m0-6c-51.8 0-93.8 42-93.8 93.8s42 93.8 93.8 93.8 93.8-42 93.8-93.8-42-93.8-93.8-93.8zM125 68.5c31.7 0 57.5 25.8 57.5 57.5s-25.8 57.5-57.5 57.5-57.5-25.8-57.5-57.5 25.8-57.5 57.5-57.5m0-5c-34.5 0-62.5 28-62.5 62.5s28 62.5 62.5 62.5 62.5-28 62.5-62.5-28-62.5-62.5-62.5zM125 109.5c9.1 0 16.5 7.4 16.5 16.5s-7.4 16.5-16.5 16.5-16.5-7.4-16.5-16.5 7.4-16.5 16.5-16.5m0-3c-10.8 0-19.5 8.7-19.5 19.5s8.7 19.5 19.5 19.5 19.5-8.7 19.5-19.5-8.7-19.5-19.5-19.5zM125 89.5c20.1 0 36.5 16.4 36.5 36.5s-16.4 36.5-36.5 36.5-36.5-16.4-36.5-36.5 16.4-36.5 36.5-36.5m0-4c-22.4 0-40.5 18.1-40.5 40.5s18.1 40.5 40.5 40.5 40.5-18.1 40.5-40.5-18.1-40.5-40.5-40.5z"/></g></svg>