<svg xmlns="http://www.w3.org/2000/svg" viewBox="0 0 250 250" enable-background="new 0 0 250 250"><g fill="#FFDD17"><path d="M173 165v33.1c0 1.1-1 1.9-2.1 1.9h-71.9c-12.1 0-22-9.7-22-21.7v-13.3h97m6-6h-109v19.3c0 15.4 12.6 27.7 28 27.7h71.9c4.4 0 8.1-3.5 8.1-7.9v-39.1h1zM211 111h-172c-4.4 0-8 3.9-8 8.4v47.7c0 4.4 3.6 7.9 8 7.9h23v-6h-23c-1.1 0-2-.8-2-1.9v-47.7c0-1.1.9-2.4 2-2.4h172c1.1 0 2 1.3 2 2.4v47.7c0 1.1-.9 1.9-2 1.9h-23v6h23c4.4 0 8-3.5 8-7.9v-47.7c0-4.5-3.6-8.4-8-8.4zM77 104v-54.1c0-1.1.8-1.9 1.9-1.9h92c1.1 0 2.1.8 2.1 1.9v54.1h6v-54.1c0-4.4-3.7-7.9-8.1-7.9h-92c-4.4 0-7.9 3.5-7.9 7.9v54.1h6z"/><circle cx="180.1" cy="135.4" r="7.8"/></g></svg>