<svg xmlns="http://www.w3.org/2000/svg" viewBox="0 0 250 250" enable-background="new 0 0 250 250"><g fill="#00A04B"><path d="M187.4 44c1.1 0 1.6.9 1.6 2v156c0 1.1-.5 2-1.6 2h-126.8c-1.1 0-1.6-.9-1.6-2v-156c0-1.1.5-2 1.6-2h126.4m.4-6h-126.8c-4.4 0-7.6 3.6-7.6 8v156c0 4.4 3.2 8 7.6 8h126.7c4.4 0 7.6-3.6 7.6-8v-156c.1-4.4-3.1-8-7.5-8zM124 83.1c22.5 0 40.9 18.3 40.9 40.9s-18.3 40.9-40.9 40.9-40.9-18.4-40.9-40.9 18.4-40.9 40.9-40.9m0-6c-25.9 0-46.9 21-46.9 46.9s21 46.9 46.9 46.9 46.9-21 46.9-46.9-21-46.9-46.9-46.9zM138.7 142c-4 3.3-9.1 5.3-14.7 5.3-12.8 0-23.2-10.4-23.2-23.2s10.4-23.2 23.2-23.2c5.8 0 11 2.1 15.1 5.6l5.1-6.2c-5.4-4.6-12.5-7.4-20.2-7.4-17.3 0-31.2 14-31.2 31.2s14 31.2 31.2 31.2c7.5 0 14.5-2.7 19.9-7.1l-5.2-6.2z"/></g></svg>