<svg xmlns="http://www.w3.org/2000/svg" viewBox="0 0 250 250" enable-background="new 0 0 250 250"><g fill="#EB008B"><path d="M161.6 132.9c11 1.1 21.2 6.5 29 15.4 8.7 9.9 13.4 22.9 13.4 36.8 0 4.6-2.7 6.7-12.4 9.9-18.5 6-42.2 9.3-66.7 9.3-24.1 0-47-3.3-64.6-9.2-10.5-3.5-12.4-5.7-12.4-9.9v-.1c0-13.8 4.8-26.9 13.4-36.8 7.8-8.9 17.9-14.3 28.9-15.4 7.3 8.4 21.4 14.1 35.3 14.1h.5c15.1-.1 27.6-5.1 35.6-14.1m-2.7-6.2c-6.6 8.9-18 14.2-32.9 14.3h-.4c-14.7 0-27.8-7-32.5-14.3-28.4.9-51.1 26.7-51.1 58.4v.1c0 9.7 8.1 12.8 16.5 15.6 19.1 6.4 42.8 9.5 66.6 9.5 24.5 0 49-3.3 68.5-9.6 8.4-2.7 16.5-5.9 16.5-15.6-.1-31.7-22.8-57.5-51.2-58.4zM165 71.5c-.7-.8-1.8-1.5-2.8-1.9.2-3.9-.2-7.7-1.2-11.2v-8.2c0-20.9-18.6-18.8-18.6-18.8l-2.8-10.5c-2.8-2.8-20.3-.8-34.3 7.6-10 6.1-15.3 16-15.3 22.9v10.4c0 2.5-.5 5.1-.4 7.8-1 .4-1.9 1.1-2.6 1.9-1.4 1.7-2 4-1.5 6.6l1.3 7.5c.6 3.3 3.1 6.9 6.4 8 2 13.1 6.3 35.4 32.8 35.4h.1c26.5 0 30.8-22.2 32.8-35.4 3.3-1.2 5.8-4.7 6.4-8.1l1.3-7.5c.4-2.5-.1-4.9-1.6-6.5zm-4.3 5.5l-1.3 7.5c-.3 1.9-2 3.5-2.7 3.5h-3l-.4 3.3c-2.6 16.7-6.6 31.7-27.3 31.7h-.1c-20.7 0-24.6-15-27.1-31.7l-.4-3.3h-3c-.7 0-2.4-1.5-2.7-3.5l-1.4-7.5c-.1-.7 0-1.4.2-1.7.2-.3.6-.3.9-.3h3.7l-.4-3.3c-.4-4.1-.2-7.9.6-11.4 16.2-14.8 50.4-12.3 50.4-12.3s-1.1 11 9.3 13.8c.6 3.1.7 6.4.3 9.8l-.4 3.3h3.7c.3 0 .7.1.9.3.2.4.3 1 .2 1.8z"/></g></svg>