<svg width="194" height="88" viewBox="0 0 194 88" xmlns="http://www.w3.org/2000/svg" xmlns:sketch="http://www.bohemiancoding.com/sketch/ns"><title>graphic-t8-adaptive-design</title><g sketch:type="MSShapeGroup" fill="none"><path d="M113 4.224c0-2.324-1.808-4.224-4.131-4.224h-95.27c-1.529 0-2.599 1.25-2.599 2.778v57.222h102v-55.776" fill="#6D6E71"/><path d="M52.456 85.279c-.074.78-.73 1.721-1.514 1.721h22.033c-.786 0-1.442-.944-1.514-1.726l-1.098-12.274h-17.163l-.744 12.279" fill="#BCBEC0"/><path d="M48 88h28v-1h-28v1z" fill="#E6E7E8"/><path d="M113 71.025v-11.025h-102v10.85c0 1.487 1.035 2.15 2.522 2.15h97.044c1.396 0 2.434-.579 2.434-1.975" fill="#E6E7E8"/><path d="M15 4h94v53h-94v-53z" fill="#fff"/><path d="M70.859 31h-9.192l4.596-8.053 4.596-8.006 9.191 16.059h-9.191" fill="#39B54A"/><path d="M70.859 31h9.191l-4.595 7.919-4.596 7.94-9.192-15.859h9.192" fill="#3988A6"/><path d="M52.547 31h9.191l-4.595 7.919-4.596 7.94-9.192-15.859h9.192" fill="#E9665E"/><path d="M52.547 31h-9.192l4.596-8.053 4.596-8.006 9.191 16.059h-9.191" fill="#3D5361"/><path d="M61.703 47h-9.192l4.596-8.041 4.596-8.001 9.191 16.042h-9.191" fill="#A4C4C1"/><path d="M61.703 15h9.191l-4.595 7.793-4.596 7.876-9.192-15.669h9.192" fill="#E6CC41"/><path d="M61.956 1.634c0 .193-.156.35-.35.35-.193 0-.35-.157-.35-.35 0-.194.157-.351.35-.351.194 0 .35.157.35.351" fill="#A7A9AC"/><path d="M173 83h-88v-49.212c0-1.939 1.544-3.788 3.482-3.788h81.08c1.939 0 3.438 1.849 3.438 3.788v49.212" fill="#6D6E71"/><path d="M179.521 88h-101.301c-.994-.823-1.22-1.543-1.22-2.61v-2.39h105v2.39c0 1.067-1.485 1.787-2.479 2.61" fill="#E6E7E8"/><path d="M121.123 83.263h15.657c0 .763-.618 1.381-1.381 1.381h-12.894c-.763 0-1.382-.618-1.382-1.381" fill="#A7A9AC"/><path d="M88 34h81v45h-81v-45z" fill="#fff"/><path d="M138.108 56h-9.192l4.596-7.768 4.596-7.864 9.191 15.632h-9.191" fill="#39B54A"/><path d="M138.108 56h9.191l-4.596 8.204-4.595 8.081-9.192-16.285h9.192" fill="#3988A6"/><path d="M119.796 56h9.191l-4.595 8.204-4.596 8.081-9.192-16.285h9.192" fill="#E9665E"/><path d="M119.796 56h-9.192l4.596-7.768 4.596-7.864 9.191 15.632h-9.191" fill="#3D5361"/><path d="M128.952 72h-9.192l4.596-7.757 4.596-7.858 9.191 15.615h-9.191" fill="#A4C4C1"/><path d="M128.952 40h9.191l-4.595 8.077-4.596 8.018-9.192-16.095h9.192" fill="#E6CC41"/><path d="M129.205 32.106c0 .193-.156.35-.35.35-.193 0-.35-.157-.35-.35 0-.194.157-.35.35-.35.194 0 .35.156.35.35" fill="#A7A9AC"/><path d="M40 86.566c0 .792-.642 1.434-1.434 1.434h-37.132c-.792 0-1.434-.642-1.434-1.434v-56.132c0-.792.642-1.434 1.434-1.434h37.132c.792 0 1.434.642 1.434 1.434v56.132" fill="#E6E7E8"/><path d="M1 34h38v48h-38v-48z" fill="#fff"/><path d="M21.568 84.572c0 .837-.677 1.514-1.513 1.514-.836 0-1.514-.677-1.514-1.514 0-.836.678-1.513 1.514-1.513s1.513.677 1.513 1.513" fill="#A7A9AC"/><path d="M24.881 57h-4.909l2.455-3.743 2.454-3.998 4.909 7.741h-4.909" fill="#39B54A"/><path d="M24.881 57h4.909l-2.454 4.786-2.455 4.519-4.909-9.305h4.909" fill="#3988A6"/><path d="M15.102 57h4.909l-2.455 4.786-2.454 4.519-4.909-9.305h4.909" fill="#E9665E"/><path d="M15.102 57h-4.909l2.454-3.743 2.455-3.998 4.909 7.741h-4.909" fill="#3D5361"/><path d="M19.992 67h-4.909l2.454-4.465 2.455-4.358 4.909 8.823h-4.909" fill="#A4C4C1"/><path d="M19.992 49h4.909l-2.455 4.211-2.454 4.231-4.909-8.442h4.909" fill="#E6CC41"/><path d="M20.276 31.756c0 .193-.157.35-.35.35-.194 0-.35-.157-.35-.35 0-.194.156-.351.35-.351.193 0 .35.157.35.351" fill="#A7A9AC"/><path d="M194 86.822c0 .651-.527 1.178-1.178 1.178h-14.644c-.651 0-1.178-.527-1.178-1.178v-29.644c0-.651.527-1.178 1.178-1.178h14.644c.651 0 1.178.527 1.178 1.178v29.644" fill="#6D6E71"/><path d="M178 61h15v22h-15v-22z" fill="#fff"/><path d="M186.953 85.469c0 .687-.557 1.243-1.244 1.243-.686 0-1.243-.556-1.243-1.243s.557-1.244 1.243-1.244c.687 0 1.244.557 1.244 1.244" fill="#A7A9AC"/><path d="M189 58.767c0 .129-.105.233-.234.233h-4.532c-.13 0-.234-.104-.234-.233v-.533c0-.129.104-.234.234-.234h4.532c.129 0 .234.105.234.234v.533" fill="#A7A9AC"/><path d="M182.444 58.375h.701v.7h-.701v-.7z" fill="#A7A9AC"/><path d="M185.674 72l1.662-2.821 1.663-2.851 3.326 5.672h-6.651z" fill="#39B54A"/><path d="M188.999 72h3.326l-1.663 2.957-1.663 2.919-3.325-5.876h3.325" fill="#45D21F"/><path d="M182.374 72h3.326l-1.663 2.957-1.663 2.919-3.325-5.876h3.325" fill="#E9665E"/><path d="M182.374 72h-3.325l1.662-2.821 1.663-2.851 3.326 5.672h-3.326" fill="#3D5361"/><path d="M185.687 78h-3.326l1.663-2.923 1.663-2.901 3.325 5.824h-3.325" fill="#A4C4C1"/><path d="M185.687 66h3.325l-1.663 2.782-1.662 2.831-3.326-5.613h3.326" fill="#E6CC41"/></g></svg>