<svg xmlns="http://www.w3.org/2000/svg" viewBox="0 0 250 250" enable-background="new 0 0 250 250"><g fill="#00ADEE"><path d="M195 54c1.1 0 1-.1 1 1v140c0 1.1.1 3-1 3h-140c-1.1 0-3-1.9-3-3v-140c0-1.1 1.9-1 3-1h140m0-6h-140c-4.4 0-9 2.6-9 7v140c0 4.4 4.6 9 9 9h140c4.4 0 7-4.6 7-9v-140c0-4.4-2.6-7-7-7zM109 77h-6M102.9 83"/><path d="M131.7 126c14.1 0 25.5-12 24.4-26.4-1-12.4-12.5-22.6-25-22.6h-37.1v2s9-.4 9 4v37c0 4-9 4-9 4v2h9v6h-9v5h9v25.5c0 2.3-.2 4-.6 4.6-.7 1-1.9 1.8-3.6 1.8h-1.8v2h18v-2h-1.9c-1.6 0-2.6-.7-3.4-1.5-.5-.6-.7-2.4-.7-4.9v-25.5h32v-5h-32v-6h22.7zm-22.7-43h22.7c10.4 0 18.9 8.7 18.5 19.2-.4 10-8.9 17.8-19 17.8h-22.2v-37z"/></g></svg>