<svg xmlns="http://www.w3.org/2000/svg" viewBox="0 0 250 250" enable-background="new 0 0 250 250"><g><path fill="#EC1C24" d="M196 99c1.1 0 2 .9 2 2v93c0 1.1-.6 2-1.7 2h-109c-1.1 0-2.3-.9-2.3-2v-93c0-1.1 1.2-2 2.3-2h108.7m.3-6h-109c-4.4 0-8.3 3.6-8.3 8v93c0 4.4 3.9 8 8.3 8h109c4.4 0 7.7-3.6 7.7-8v-93c0-4.4-3.4-8-7.8-8h.1zM152.3 134h-18.6c-7.6 0-13.7-6.6-13.7-14.2v-2.8h46v2.8c0 7.6-6.1 14.2-13.7 14.2zM55.3 149c-1.1 0-2.3-.9-2.3-2v-93c0-1.1 1.2-2 2.3-2h109.2c1.1 0 1.6.9 1.6 2v31h6v-31c0-4.4-3.2-8-7.6-8h-109.2c-4.4 0-8.3 3.6-8.3 8v93c0 4.4 3.9 8 8.3 8h15.7v-6h-15.7z"/></g></svg>