<svg xmlns:sketch="http://www.bohemiancoding.com/sketch/ns" xmlns="http://www.w3.org/2000/svg" viewBox="0 0 208 44" enable-background="new 0 0 208 44"><title>logo-t8market</title><g sketch:type="MSLayerGroup"><path sketch:type="MSShapeGroup" fill="#231F1F" d="M44.5 22c0 12.2-9.9 22-22 22s-22-9.9-22-22 9.9-22 22-22 22 9.8 22 22"/><path sketch:type="MSShapeGroup" fill="#fff" d="M9.9 28.8c0-3 1.6-9.3 4-16.9.3-1.1.8-1.1 2.3-1.1l-1.3 4.2h5.7c.7 0 .5.5.3 1.8h-6.5c-1.6 5.8-2.4 9.7-2.4 11.4 0 1.8.9 3 2.8 3 1.3 0 2.4-.4 3.2-.8l.1.1-.1.7c-.4 1.5-2.4 1.9-4 1.9-2.4 0-4.1-1.4-4.1-4.3"/><path sketch:type="MSShapeGroup" fill="#fff" d="M26.3 33.1c-3.6 0-5.9-2.3-5.9-5.4 0-2.9 2.1-4.8 4.9-5.5-1.9-.9-3.1-3-3.1-4.9 0-4 3.3-6.2 7.2-6.2 3.2 0 5.9 1.6 5.9 5 0 3-2.2 5.2-5 6.1 2 .7 3.3 2.3 3.3 4.3 0 4.2-3.4 6.6-7.3 6.6zm1.3-10c-2.9 0-5.1 1.8-5.1 4.5 0 2 1.5 3.7 4 3.7 2.9 0 5.3-1.8 5.3-4.7-.1-1.9-1.8-3.5-4.2-3.5zm1.6-10.2c-3 0-5.1 1.8-5.1 4.5 0 1.8 1.5 3.9 3.8 3.9 2.9 0 5.3-2.2 5.3-4.9.1-1.9-1.3-3.5-4-3.5z"/></g><g fill="#231F1F"><path d="M57.9 32.6v-22h11c5 0 7.7 3.3 7.7 7.3s-2.7 7.3-7.7 7.3h-5.3v7.4h-5.7zm12.9-14.7c0-1.5-1.1-2.4-2.6-2.4h-4.6v4.7h4.6c1.5 0 2.6-.8 2.6-2.3zM88.7 32.6v-1.9c-1 1.1-2.8 2.3-5.5 2.3-3.6 0-5.2-2-5.2-5v-11.4h5.1v9.3c0 1.9 1 2.6 2.6 2.6 1.5 0 2.4-.8 3-1.6v-10.3h5.1v15.9h-5.1zM96.9 32.6v-22h5.1v8c1.3-1.6 3-2.3 4.7-2.3 4 0 7 3.1 7 8.4 0 5.4-3.1 8.4-7 8.4-1.8 0-3.4-.7-4.7-2.2v1.8h-5.1zm8.1-4.1c2 0 3.5-1.5 3.5-3.9s-1.5-3.9-3.5-3.9c-1.1 0-2.4.6-3 1.5v4.9c.6.8 1.9 1.4 3 1.4zM115 32.6v-22h5.1v22h-5.1zM122.8 12.3c0-1.6 1.3-2.9 2.9-2.9s2.9 1.3 2.9 2.9-1.3 2.9-2.9 2.9-2.9-1.3-2.9-2.9zm.4 20.3v-16h5.1v15.9h-5.1zM129.9 30.5l2.1-3.5c1.2 1.1 3.7 2.1 5.6 2.1 1.5 0 2.1-.5 2.1-1.2 0-2.1-9.3 0-9.3-6.4 0-2.8 2.4-5.2 6.8-5.2 2.7 0 5 .9 6.7 2.1l-1.9 3.4c-1-.9-2.8-1.7-4.7-1.7-1.2 0-2 .5-2 1.2 0 1.8 9.3 0 9.3 6.6 0 3-2.7 5.3-7.3 5.3-2.7-.2-5.7-1.2-7.4-2.7zM156.8 32.6v-9.3c0-1.9-1-2.6-2.6-2.6-1.5 0-2.5.8-3.1 1.6v10.3h-5.1v-22h5.1v8c1-1.1 2.8-2.3 5.5-2.3 3.6 0 5.3 2 5.3 5v11.4h-5.1zM163.9 12.3c0-1.6 1.3-2.9 2.9-2.9s2.9 1.3 2.9 2.9-1.3 2.9-2.9 2.9-2.9-1.3-2.9-2.9zm.3 20.3v-16h5.1v15.9h-5.1zM183.1 32.6v-9.2c0-1.9-1-2.6-2.6-2.6-1.5 0-2.5.8-3.1 1.6v10.3h-5.1v-16.1h5.1v1.9c1-1.1 2.8-2.3 5.5-2.3 3.6 0 5.3 2.1 5.3 5v11.3h-5.1zM190.8 36.7l2.2-3.7c1.2 1.3 3 1.8 4.9 1.8 1.7 0 4.1-.7 4.1-3.7v-1.1c-1.3 1.6-2.9 2.3-4.7 2.3-3.9 0-7-2.7-7-8.1 0-5.2 3-8 7-8 1.8 0 3.4.7 4.7 2.3v-1.9h5v14.5c0 6.5-5.1 7.9-9.1 7.9-2.8 0-5-.6-7.1-2.3zm11.1-10.3v-4.3c-.6-.9-2-1.4-3-1.4-2 0-3.5 1.2-3.5 3.5s1.5 3.6 3.5 3.6c1.1 0 2.4-.5 3-1.4z"/></g></svg>