<svg xmlns="http://www.w3.org/2000/svg" viewBox="29 443 971 114" enable-background="new 29 443 971 114"><path fill="#231F20" d="M200.5 486.8v-31.6h3.9v24.8l18.1-24.8h3.9v31.6h-3.9v-25.1l-18.5 25.1h-3.5zm56 0v-14.5h-18.5v14.5h-3.9v-31.6h3.9v13.6h18.5v-13.6h3.9v31.6h-3.9zm11.3 0v-31.6h14c5.6 0 8.8 3.2 8.8 8.1 0 3.9-2.7 6.6-5.6 7.2 3.4.5 6.1 3.9 6.1 7.7 0 5-3.4 8.6-9.1 8.6h-14.2zm18.8-22.9c0-2.9-2-5.2-5.4-5.2h-9.5v10.2h9.5c3.5.2 5.4-2.2 5.4-5zm.6 13.9c0-2.9-2-5.4-5.9-5.4h-9.7v10.9h9.7c3.7.1 5.9-2 5.9-5.5zm10.4 9v-31.6h20.6v3.6h-16.7v10.2h16.5v3.6h-16.5v10.9h16.7v3.6h-20.6v-.3zm25.6-15.8c0-9.7 7.2-16.3 16.3-16.3 5.6 0 9.5 2.7 12 6.3l-3.2 1.8c-1.8-2.7-5-4.7-8.6-4.7-7 0-12.2 5.4-12.2 12.9s5.2 12.9 12.2 12.9c3.6 0 6.8-2 8.6-4.7l3.4 1.8c-2.7 3.6-6.5 6.3-12 6.3-9.3.1-16.5-6.4-16.5-16.3zm41.1 15.8v-28h-10v-3.6h24v3.6h-10v28.2h-3.9l-.1-.2zm19.2 0v-31.6h3.9v24.8l18.1-24.8h3.9v31.6h-3.9v-25.1l-18.5 25.1h-3.5zm58.8 0h-25.3v-31.6h3.9v28.2h18.5v-28.2h3.9v28.2h2.9v9.3h-3.9v-5.9zm9 0v-31.6h3.9v24.8l18.1-24.8h3.9v31.6h-3.8v-25.1l-18.5 25.1h-3.6zm32.3-15.8c0-9.3 6.3-16.3 15.6-16.3s15.6 7 15.6 16.3-6.3 16.3-15.6 16.3-15.6-6.9-15.6-16.3zm27.3 0c0-7.4-4.5-12.9-11.7-12.9s-11.7 5.4-11.7 12.9c0 7.4 4.5 12.9 11.7 12.9 7 0 11.7-5.5 11.7-12.9zm32.6 15.8v-14.5h-18.5v14.5h-3.9v-31.6h3.9v13.6h18.5v-13.6h3.9v31.6h-3.9zm33.7 0v-14.5h-18.5v14.5h-3.9v-31.6h3.9v13.6h18.5v-13.6h3.9v31.6h-3.9zm10.1-15.8c0-9.3 6.3-16.3 15.6-16.3s15.6 7 15.6 16.3-6.3 16.3-15.6 16.3c-9.4.1-15.6-6.9-15.6-16.3zm27.2 0c0-7.4-4.5-12.9-11.7-12.9-7.2 0-11.7 5.4-11.7 12.9 0 7.4 4.5 12.9 11.7 12.9 7.1 0 11.7-5.5 11.7-12.9zm7.9 1.3v-3h11.3v3h-11.3zm16.5 14.5v-31.6h3.9v24.8l18.1-24.8h3.9v31.6h-3.8v-25.1l-18.5 25.1h-3.6zm31.2-4.6l2.3-2.5c2 2.5 5.6 4.1 9.5 4.1 5 0 7.9-2.3 7.9-5.9 0-3.9-3.4-5.6-8.3-5.6h-6.5v-3.6h6.5c4.1 0 7.7-1.6 7.7-5.2s-3.4-5.4-7.5-5.4c-3.6 0-6.6 1.3-9 3.8l-2.2-2.5c2.3-2.7 6.5-4.8 11.5-4.8 6.3 0 11.3 3 11.3 8.4 0 4.5-3.9 6.8-6.8 7.4 2.9.2 7.4 2.7 7.4 7.7 0 5.2-4.7 9.1-11.8 9.1-5.7.2-10-2.2-12-5zm27.8 1.6c3.8-.2 5.9-1.8 7.2-12.6l2-15.8h19.4v28.2h2.9v9.1h-3.9v-5.7h-23.5v5.7h-3.9l-.2-8.9zm6.3-.4h18.3v-24.6h-11.8l-1.6 12.6c-.9 6.6-2.6 10.2-4.9 12zm52.8 3.4l-2.9-7h-15.8l-2.9 7h-4.5l12.7-31.6h4.8l12.7 31.6h-4.1zm-10.8-27.4l-6.6 17h13.4l-6.8-17zm24 27.4v-28h-10v-3.6h24v3.6h-10v28.2h-3.9l-.1-.2zm19 0v-31.6h20.6v3.6h-16.7v10.2h16.5v3.6h-16.5v10.9h16.7v3.6h-20.6v-.3zm25-2.9c3.8 0 5.9-2.2 7.2-12.7l2-15.8h19.4v31.6h-3.9v-28.2h-11.8l-1.6 12.6c-1.8 13.8-5.6 16-11.1 16l-.2-3.5zm39.8-28.7v12.6h8.8c6.3 0 9.9 4.3 9.9 9.5s-3.6 9.5-9.9 9.5h-12.8v-31.6h4zm0 16.2v12h8.3c3.8 0 6.3-2.5 6.3-6.1 0-3.6-2.5-6.1-6.3-6.1h-8.3v.2zm20.8-.4c0-9.7 7.2-16.3 16.3-16.3 5.6 0 9.5 2.7 12 6.3l-3.2 1.8c-1.8-2.7-5-4.7-8.6-4.7-7 0-12.2 5.4-12.2 12.9s5.2 12.9 12.2 12.9c3.6 0 6.8-2 8.6-4.7l3.4 1.8c-2.7 3.6-6.5 6.3-12 6.3-9.3.1-16.5-6.4-16.5-16.3zm52.4 15.8l-12-14.2-3.2 3.6v10.6h-4v-31.6h3.9v16.3l14-16.3h4.8l-13.1 15.1 14.3 16.5h-4.7zm9.3 0v-31.6h3.9v24.8l18.1-24.8h3.9v31.6h-3.9v-25.1l-18.5 25.1h-3.5zm33.5 0v-31.6h3.9v24.8l18.1-24.8h3.9v31.6h-3.9v-25.1l-18.5 25.1h-3.5zm13.1-33.3c-3.4 0-6.5-1.6-8.3-4.1l1.8-1.4c1.4 2.2 3.8 3.4 6.6 3.4 2.7 0 5-1.3 6.5-3.4l1.8 1.4c-1.9 2.4-5 4.1-8.4 4.1zm-760.7 90.2l-10-13.5-10 13.5h-5l12.4-16.1-11.8-15.5h4.8l9.3 12.6 9.3-12.6h4.8l-11.5 15.4 12.2 16.3h-4.7l.2-.1zm6.3-15.8c0-9.3 6.3-16.3 15.6-16.3s15.6 7 15.6 16.3-6.3 16.3-15.6 16.3-15.6-7-15.6-16.3zm27.3 0c0-7.4-4.5-12.9-11.7-12.9-7.2 0-11.7 5.4-11.7 12.9 0 7.4 4.5 12.9 11.7 12.9 7.2 0 11.7-5.6 11.7-12.9zm6.2 12.9c3.8 0 5.9-2.2 7.2-12.7l2-15.8h19.4v31.6h-3.9v-28.2h-11.9l-1.6 12.6c-1.8 13.8-5.6 16-11.1 16l-.1-3.5zm33.8-.4c3.8-.2 5.9-1.8 7.2-12.6l2-15.8h19.4v28.2h2.9v9.3h-3.9v-5.7h-23.5v5.7h-4.1v-9.1zm6.2-.1h18.3v-24.6h-11.8l-1.6 12.6c-.7 6.6-2.5 10.2-4.9 12zm30.2 3.4v-31.6h3.9v24.8l18.1-24.8h3.9v31.6h-3.9v-25.1l-18.4 25.1h-3.6zm55.9 0v-14.5h-18.5v14.5h-3.9v-31.6h3.9v13.6h18.5v-13.6h3.9v31.6h-3.9zm11.3 0v-31.6h20.6v3.6h-16.7v28.2h-3.9v-.2zM37.8 528.6c0-12.2 6.6-38.7 16.5-70.3 1.4-4.7 3-4.7 9.5-4.7l-5.6 17.6h23.8c3 0 2.3 2 1.1 7.5h-27c-6.8 23.9-9.9 40-9.9 47.4 0 7.5 3.6 12.2 11.5 12.2 5.4 0 9.9-1.6 13.1-3.2l.4.4-.5 3c-1.6 6.1-9.9 7.9-16.3 7.9-9.7 0-16.6-6-16.6-17.8zm68 17.8c-14.9 0-24.4-9.7-24.4-22.4 0-12 8.6-19.7 20.3-22.8-7.9-3.8-12.7-12.4-12.7-20.4 0-16.3 13.5-25.7 30.1-25.7 13.1 0 24.4 6.6 24.4 21 0 12.6-9.3 21.7-20.6 25.5 8.1 3 13.5 9.3 13.5 17.9-.3 16.6-14.4 26.9-30.6 26.9zm5.2-41.5c-12 0-21.2 7.5-21.2 18.5 0 8.1 6.3 15.4 16.3 15.4 11.8 0 21.9-7.5 21.9-19.4.1-8-6.9-14.5-17-14.5zm6.8-42.3c-12.4 0-21 7.4-21 18.8 0 7.5 6.3 16.3 15.6 16.3 11.8 0 21.9-9.1 21.9-20.4.2-8.4-5.5-14.7-16.5-14.7z"/></svg>